@startuml R+V Anwendungslandschaft ./src/
'allow_mixing
left to right direction
scale max 1700*1200
header R+V Anwendungslandschaft ./src/

node "landscape app project" {
    package "components"  {
        class "App"
        class "HomePage"
        class "HomePageContainer"
        class "NotFoundPage"
        class "Root"
        class Filters
       	class Grouping
       	class Sorting
       	class PresetsContainer
       	class Ad
       	class CustomAutoSizer
       	class TweetButton
       	class MainContentContainer
       	class HomePageUrlContainer
       	class HomePageScrollerContainer
       	class ResetFiltersContainer
       	class ItemDialogContainer
       	class ItemDialogButtonsContainer
       	class HeaderContainer
       	class SummaryContainer
       	class ExportCsvContainer
       	class Footer
       	class EmbeddedFooter

        package BigPicture {
            class MainLandscapeContentContainer
            class ExtraLandscapeContentContainer
            class SwitchButtonContainer
            class ZoomButtonsContainer
            class FullscreenButtonContainer
        }

        HomePage --> Filters
       	HomePage --> Grouping
       	HomePage --> Sorting
       	HomePage --> PresetsContainer
       	HomePage --> Ad
       	HomePage --> CustomAutoSizer
       	HomePage --> TweetButton
       	HomePage --> MainContentContainer
       	HomePage --> HomePageUrlContainer
       	HomePage --> HomePageScrollerContainer
       	HomePage --> ResetFiltersContainer
       	HomePage --> ItemDialogContainer
       	HomePage --> ItemDialogButtonsContainer
       	HomePage --> HeaderContainer
       	HomePage --> SummaryContainer
       	HomePage --> ExportCsvContainer
       	HomePage --> Footer
       	HomePage --> EmbeddedFooter
       	HomePage --> MainLandscapeContentContainer
       	HomePage --> ExtraLandscapeContentContainer
       	HomePage --> SwitchButtonContainer
       	HomePage --> ZoomButtonsContainer
       	HomePage --> FullscreenButtonContainer

        Root --> App
        App --> HomePageContainer
        App --> NotFoundPage
        HomePageContainer --> HomePage

        note top of App
            Main Application
        end note
    }
    package "images" {
    }

    package "reducers" {
        class "api"
        class "bus"
        class "index"
        class "mainReducer"
        index --> mainReducer
    }

    package "store" {
        class "configureStore"
    }
    
    package "styles" {
        class "theme" 
    }

    package "types" {
        class index
		class fields
    }

    package "utils" {
        class "createSelector"
        class "csvExporter"
        class "isEmbed"
        class "isIphone"
        class "isMobile"
        class "isDesktop"
        class "isGoogle"
        class "itemsCalculator"
        class "selectedItemCalculator"
        class "syncToUrl"
        class "zoom"
    }
    class "index.js" #DDDDDD
    note left of index.js 
        Dies ist der Einstieg
    end note

    index.js --> configureStore
    index.js --> Root
    index.js --> mainReducer
    index.js --> theme
    index.js --> isIphone

    HomePageContainer --> createSelector
    HomePageContainer --> mainReducer
    HomePageContainer --> isEmbed
    HomePageContainer --> itemsCalculator
    HomePageContainer --> selectedItemCalculator

   	HomePage --> isIphone
   	HomePage --> isMobile
   	HomePage --> isDesktop
   	HomePage --> isGoogle
   	HomePage --> bus
    
}

node "landscape project" {
    database "data.json" {

    }
    database "settings.yml" {

    }
}

api --> data.json
mainReducer --> api
mainReducer --> bus
mainReducer --> syncToUrl
mainReducer --> zoom
mainReducer --> itemsCalculator
mainReducer --> csvExporter
mainReducer --> settings.yml
index.js --> settings.yml
App --> settings.yml
HomePageContainer --> settings.yml
@enduml
